<?xml version="1.0" encoding="UTF-8"?>
<!DOCTYPE svg PUBLIC "-//W3C//DTD SVG 1.1//EN" "http://www.w3.org/Graphics/SVG/1.1/DTD/svg11.dtd">
<!-- Creator: CorelDRAW 2019 -->
<svg xmlns="http://www.w3.org/2000/svg" xml:space="preserve" width="0.1in" height="0.1in" version="1.1" style="shape-rendering:geometricPrecision; text-rendering:geometricPrecision; image-rendering:optimizeQuality; fill-rule:evenodd; clip-rule:evenodd"
viewBox="0 0 100 100"
 xmlns:xlink="http://www.w3.org/1999/xlink"
 xmlns:xodm="http://www.corel.com/coreldraw/odm/2003">
 <defs>
  <style type="text/css">
   <![CDATA[
    .fil0 {fill:#00FF41}
   ]]>
  </style>
 </defs>
 <g id="Layer_x0020_1">
  <metadata id="CorelCorpID_0Corel-Layer"/>
  <g id="_918502352">
   <path class="fil0" d="M25.1 0.25l-0.16 -0c0,0.19 0.04,0.11 -0.21,0.1l-0.13 0.02c0,0.18 0.04,0.11 -0.19,0.11l-0.05 -0.01c0,0.19 0.04,0.12 -0.18,0.12l-0.05 -0.01c0,0.18 0.04,0.12 -0.17,0.13l-0.05 -0c0,0.17 0.04,0.12 -0.15,0.11 0.02,0.17 0.05,0.12 -0.14,0.12l-0.18 0.09c0,0.18 0.05,0.14 -0.13,0.13 0.02,0.17 0.06,0.13 -0.11,0.11 0.02,0.17 0.06,0.12 -0.13,0.13l-0.08 0.08c-0.01,0.18 0.04,0.15 -0.13,0.13 0.02,0.17 0.06,0.14 -0.11,0.11 0.02,0.17 0.06,0.14 -0.11,0.12 0.01,0.17 0.06,0.13 -0.12,0.13l-0.09 0.18c-0.01,0.2 0.05,0.16 -0.14,0.16l0.01 0.05c0.01,0.21 0.06,0.17 -0.13,0.17l0.01 0.05c0.02,0.22 0.07,0.18 -0.12,0.18l0.01 0.04c0.02,0.23 0.08,0.19 -0.11,0.19l0 0.04c0.01,0.24 0.08,0.2 -0.1,0.2l0 0.17 -0.14 0.24 0.04 0.22 -0.15 0.45 -0 75.79 0.16 0.43 -0.04 0.14 0.14 0.25 -0 0.16c0.19,0 0.11,-0.04 0.1,0.2l0.02 0.13 0.11 0.19 -0.01 0.04c0.18,0 0.11,-0.04 0.12,0.18l0.08 0.18c0.19,0 0.13,-0.04 0.13,0.16l-0.01 0.05c0.18,0 0.13,-0.04 0.11,0.15 0.17,-0.02 0.12,-0.06 0.13,0.13 0.26,0.36 0.4,0.48 0.75,0.75 0.2,0.01 0.15,-0.04 0.15,0.15l0.18 0.09c0.2,0 0.16,-0.06 0.16,0.13l0.19 0.08c0.21,0.01 0.17,-0.05 0.17,0.12l0.13 0.02c0.23,-0.02 0.19,-0.09 0.19,0.11l0.04 -0.01c0.24,-0.01 0.21,-0.08 0.21,0.1l0.15 0 0.25 0.13 0.27 -0 0.34 0.1 64.9 0.01 0.37 -0.13 0.12 0.03 0.19 -0.15 0.19 0.02 0.07 0.03 0.21 -0.16 0.09 0.03c0,-0.19 -0.04,-0.12 0.19,-0.11l0.05 0c0,-0.19 -0.04,-0.13 0.18,-0.12l0.04 0.01c0,-0.19 -0.04,-0.13 0.17,-0.13l0.06 0.01c0,-0.17 -0.04,-0.13 0.14,-0.11 -0.02,-0.18 -0.05,-0.12 0.14,-0.12l0.18 -0.09c0,-0.19 -0.05,-0.15 0.13,-0.13 -0.02,-0.17 -0.06,-0.13 0.12,-0.11 -0.02,-0.17 -0.06,-0.13 0.11,-0.11 -0.02,-0.17 -0.06,-0.13 0.11,-0.11 -0.02,-0.17 -0.06,-0.13 0.11,-0.11 -0.02,-0.17 -0.06,-0.13 0.11,-0.11 -0.01,-0.18 -0.06,-0.13 0.13,-0.13l0.09 -0.18c0,-0.2 -0.05,-0.16 0.14,-0.16l0.09 -0.18c0,-0.21 -0.06,-0.17 0.12,-0.17l-0 -0.04c-0,-0.22 -0.07,-0.18 0.12,-0.18l-0.01 -0.05c0,-0.22 -0.07,-0.19 0.11,-0.19l0.02 -0.13c-0.02,-0.25 -0.09,-0.22 0.1,-0.22l-0 -0.15 0.13 -0.27 -0 -0.38 0.02 -48.8 -31.5 -0.05c-0.26,-0.06 -0.19,-0.07 -0.26,-0.11l-0.31 0.03 -0.3 -0.17 -0.09 0.03 -0.22 -0.1 -0.13 -0.02c-0.23,0.01 -0.19,0.08 -0.19,-0.11l-0.06 0c-0.21,0 -0.18,0.06 -0.18,-0.11l-0.04 0c-0.21,-0 -0.17,0.06 -0.17,-0.12l-0.05 0.01c-0.2,0 -0.16,0.06 -0.16,-0.13l-0.18 -0.09c-0.19,-0 -0.16,0.05 -0.14,-0.12 -0.18,0.01 -0.13,0.06 -0.13,-0.13l-0.64 -0.65c-0.18,0 -0.14,0.05 -0.13,-0.13 -0.17,0.02 -0.12,0.05 -0.12,-0.14l0 -0.05c-0.17,0 -0.12,0.04 -0.11,-0.15 -0.18,0.02 -0.12,0.06 -0.11,-0.15l0 -0.05c-0.19,0 -0.13,0.04 -0.12,-0.17l0.01 -0.05c-0.19,0 -0.13,0.04 -0.11,-0.19l0.03 -0.09 -0.17 -0.19 0.04 -0.13 -0.15 -0.23 0.01 -0.28 -0.11 -0.31 -0.02 -26.96c-0.78,-0.29 -14.55,-0.11 -16.61,-0.11 -2.78,0 -5.55,0 -8.32,0 -2.72,0 -5.66,0.1 -8.34,0.01l-0.41 -0.02 -0.26 0.13z"/>
   <path class="fil0" d="M8.65 15.98l-0.24 0c0,0.19 0.04,0.11 -0.21,0.1l-0.13 0.01c0,0.18 0.04,0.11 -0.19,0.11l-0.05 -0.01c0,0.19 0.04,0.13 -0.19,0.11l-0.04 -0c0,0.19 0.04,0.13 -0.18,0.12l-0.05 -0.01c0,0.18 0.04,0.12 -0.16,0.13l-0.18 0.09c0,0.19 0.04,0.14 -0.14,0.13 0.02,0.17 0.06,0.12 -0.13,0.12l-0.65 0.64c0,0.19 0.06,0.16 -0.12,0.13 0.02,0.19 0.06,0.14 -0.13,0.14l-0.09 0.18c-0,0.2 0.06,0.16 -0.13,0.16l0 0.05c0.01,0.22 0.07,0.18 -0.12,0.18l0.01 0.04c0.02,0.22 0.08,0.19 -0.11,0.19l0.01 0.04c0.01,0.23 0.07,0.19 -0.11,0.19l0.02 0.09 -0.15 0.22 0.04 0.21 -0.16 0.32 0.03 0.32 0.01 75.85 -0.04 0.33 0.16 0.31 -0.05 0.13 0.15 0.22 -0 0.17 0.11 0.19 -0 0.05c0.18,0 0.11,-0.04 0.11,0.18l-0 0.05c0.18,0 0.12,-0.04 0.12,0.17l0.09 0.18c0.19,0 0.13,-0.04 0.14,0.16l0.09 0.18c0.19,0 0.14,-0.04 0.13,0.13 0.17,-0.02 0.13,-0.06 0.11,0.11 0.17,-0.02 0.13,-0.06 0.11,0.11 0.17,-0.02 0.13,-0.06 0.11,0.11 0.17,-0.02 0.13,-0.06 0.11,0.11 0.17,-0.02 0.13,-0.06 0.11,0.11 0.17,-0.02 0.14,-0.06 0.11,0.11 0.18,-0.02 0.14,-0.06 0.14,0.12l0.18 0.09c0.2,0.01 0.15,-0.04 0.15,0.14l0.06 -0.01c0.22,-0.01 0.17,-0.07 0.17,0.13l0.04 -0.01c0.22,-0.01 0.18,-0.07 0.18,0.12l0.04 -0.01c0.23,-0.02 0.19,-0.08 0.19,0.11l0.05 -0.01 0.2 0.11 0.16 -0 0.24 0.14 0.27 -0 0.33 0.1 64.94 0.01 0.39 -0.13 0.29 0.02 0.24 -0.14 0.11 0.04 0.2 -0.16 0.09 0.02c0,-0.18 -0.04,-0.12 0.19,-0.11l0.05 0.01c0,-0.19 -0.04,-0.12 0.17,-0.12l0.05 0.01c0,-0.18 -0.04,-0.12 0.17,-0.13l0.18 -0.09c0,-0.19 -0.04,-0.13 0.15,-0.14l0.3 -0.19c0,-0.19 -0.05,-0.15 0.13,-0.13 -0.02,-0.17 -0.06,-0.13 0.11,-0.11 -0.02,-0.17 -0.05,-0.13 0.11,-0.11 -0.02,-0.18 -0.06,-0.13 0.13,-0.13l0.2 -0.3c0.01,-0.2 -0.04,-0.15 0.14,-0.15l0.09 -0.18c0.01,-0.2 -0.05,-0.16 0.13,-0.16l-0 -0.06c-0,-0.21 -0.07,-0.17 0.12,-0.17l-0.01 -0.05c-0,-0.22 -0.07,-0.19 0.11,-0.19l-0.03 -0.09 0.17 -0.19 -0.02 -0.1 0.09 -0.21 -0.01 -0.28 0.16 -0.43 -0.02 -5.97 -57.14 0.02c-0.17,-0 -0.12,0.02 -0.32,-0.02 -0.45,-0.1 -0.05,0 -0.25,-0.13l-0.3 0.03 -0.25 -0.14 -0.11 0.04 -0.2 -0.16 -0.09 0.02c-0.22,0.01 -0.19,0.07 -0.19,-0.11l-0.05 0.01c-0.22,0 -0.18,0.06 -0.18,-0.12l-0.05 0.01c-0.21,-0 -0.17,0.06 -0.17,-0.13l-0.06 0c-0.2,0.01 -0.17,0.06 -0.14,-0.11 -0.18,0.01 -0.14,0.06 -0.14,-0.12l-0.18 -0.09c-0.19,-0.01 -0.15,0.04 -0.14,-0.13 -0.17,0.01 -0.13,0.05 -0.11,-0.11 -0.17,0.02 -0.13,0.06 -0.11,-0.11 -0.17,0.02 -0.13,0.06 -0.11,-0.11 -0.17,0.02 -0.13,0.05 -0.11,-0.11 -0.17,0.02 -0.13,0.05 -0.11,-0.12 -0.17,0.02 -0.12,0.06 -0.12,-0.13l-0.09 -0.18c-0.19,0 -0.13,0.04 -0.13,-0.16l-0.09 -0.19c-0.19,0 -0.13,0.04 -0.12,-0.17l0 -0.05c-0.19,0 -0.13,0.04 -0.12,-0.18l0.01 -0.04c-0.2,0 -0.13,0.04 -0.11,-0.2l0 -0.17 -0.15 -0.22 0.05 -0.14 -0.16 -0.31 0.04 -0.33 -0.13 -0.46c-0.02,-0.15 -0,-0.41 -0,-0.57 0.1,-19.98 0,-40.17 0,-60.17 0,-2.7 -0.18,-6.06 0.02,-8.67l-7.53 0.04 -0.23 -0.03 -0.28 0.12z"/>
   <path class="fil0" d="M62.26 24.04l-0.04 0.33 0.13 0.26 -0.03 0.13 0.15 0.21 -0.03 0.07c0.2,0 0.13,-0.04 0.11,0.2l0.02 0.13c0.18,0 0.11,-0.04 0.12,0.18l-0.01 0.05c0.18,0 0.11,-0.04 0.13,0.17l0.08 0.18c0.19,0 0.13,-0.04 0.14,0.16l0.09 0.18c0.18,0 0.14,-0.04 0.12,0.13 0.17,-0.02 0.13,-0.06 0.11,0.11 0.17,-0.02 0.13,-0.06 0.11,0.11 0.17,-0.02 0.13,-0.06 0.11,0.11 0.17,-0.02 0.13,-0.06 0.11,0.11 0.17,-0.02 0.13,-0.06 0.11,0.11 0.18,-0.02 0.13,-0.06 0.13,0.13l0.18 0.09c0.19,0 0.17,-0.05 0.14,0.12 0.19,-0.02 0.15,-0.06 0.15,0.11l0.06 -0c0.2,0 0.16,-0.06 0.16,0.13l0.06 -0.01c0.22,-0.01 0.18,-0.07 0.18,0.12l0.04 -0.01c0.22,-0 0.19,-0.07 0.19,0.11l0.09 -0.02 0.2 0.16 0.2 -0.03 0.26 0.13 0.2 -0.02 0.4 0.12 28.4 -0.02 -0.31 -0.31c-0.19,-0.01 -0.15,0.04 -0.13,-0.13 -0.17,0.02 -0.13,0.06 -0.11,-0.11 -0.18,0.02 -0.13,0.06 -0.13,-0.13l-0.41 -0.31c-0.18,-0.01 -0.15,0.04 -0.13,-0.13 -0.17,0.02 -0.14,0.06 -0.12,-0.11 -0.18,0.02 -0.13,0.06 -0.13,-0.13l-0.41 -0.31c-0.19,-0.01 -0.15,0.04 -0.13,-0.13 -0.17,0.01 -0.13,0.06 -0.11,-0.11 -0.18,0.02 -0.13,0.06 -0.13,-0.13l-0.41 -0.3c-0.19,-0.01 -0.16,0.04 -0.13,-0.13 -0.17,0.02 -0.13,0.06 -0.11,-0.11 -0.18,0.02 -0.13,0.06 -0.13,-0.13l-0.41 -0.31c-0.19,-0.01 -0.15,0.05 -0.13,-0.13 -0.17,0.02 -0.13,0.06 -0.11,-0.11 -0.18,0.02 -0.13,0.05 -0.13,-0.13l-0.41 -0.31c-0.19,-0.01 -0.15,0.04 -0.13,-0.13 -0.17,0.02 -0.14,0.06 -0.12,-0.11 -0.18,0.02 -0.13,0.05 -0.13,-0.13l-0.41 -0.3c-0.19,-0.01 -0.15,0.04 -0.13,-0.13 -0.17,0.02 -0.13,0.06 -0.11,-0.11 -0.18,0.02 -0.13,0.06 -0.13,-0.13l-0.41 -0.31c-0.19,-0.01 -0.15,0.04 -0.13,-0.13 -0.17,0.01 -0.13,0.05 -0.11,-0.11 -0.18,0.02 -0.13,0.06 -0.13,-0.13l-0.41 -0.31c-0.19,-0.01 -0.15,0.04 -0.13,-0.13 -0.17,0.02 -0.13,0.06 -0.11,-0.11 -0.18,0.02 -0.13,0.06 -0.13,-0.13l-0.41 -0.31c-0.19,-0.01 -0.15,0.04 -0.13,-0.13 -0.17,0.02 -0.14,0.06 -0.12,-0.11 -0.17,0.02 -0.13,0.05 -0.13,-0.13l-0.41 -0.31c-0.19,-0.01 -0.15,0.04 -0.13,-0.13 -0.17,0.02 -0.14,0.06 -0.12,-0.11 -0.17,0.02 -0.13,0.06 -0.13,-0.13l-0.41 -0.31c-0.19,-0.01 -0.15,0.05 -0.13,-0.13 -0.17,0.02 -0.14,0.06 -0.11,-0.11 -0.18,0.02 -0.13,0.06 -0.13,-0.13l-0.41 -0.31c-0.19,-0.01 -0.15,0.05 -0.13,-0.13 -0.17,0.02 -0.13,0.06 -0.11,-0.11 -0.18,0.02 -0.13,0.06 -0.13,-0.13l-0.41 -0.31c-0.19,-0.01 -0.15,0.05 -0.13,-0.13 -0.17,0.02 -0.13,0.06 -0.11,-0.11 -0.18,0.01 -0.13,0.05 -0.13,-0.13l-0.41 -0.31c-0.19,-0.01 -0.15,0.05 -0.13,-0.13 -0.17,0.02 -0.14,0.06 -0.12,-0.11 -0.18,0.02 -0.13,0.06 -0.13,-0.13l-0.41 -0.31c-0.18,-0.01 -0.15,0.04 -0.13,-0.13 -0.17,0.02 -0.14,0.06 -0.12,-0.11 -0.18,0.02 -0.13,0.06 -0.13,-0.13l-0.41 -0.31c-0.19,-0.01 -0.15,0.04 -0.13,-0.13 -0.17,0.01 -0.14,0.06 -0.12,-0.11 -0.18,0.02 -0.13,0.06 -0.13,-0.13l-0.41 -0.31c-0.19,-0.01 -0.15,0.04 -0.13,-0.13 -0.17,0.01 -0.14,0.06 -0.11,-0.11 -0.18,0.02 -0.13,0.06 -0.13,-0.13l-0.41 -0.31c-0.19,-0.01 -0.15,0.04 -0.13,-0.13 -0.17,0.02 -0.13,0.06 -0.11,-0.11 -0.18,0.02 -0.13,0.05 -0.13,-0.13l-0.41 -0.31c-0.19,-0.01 -0.15,0.04 -0.13,-0.13 -0.17,0.02 -0.13,0.06 -0.11,-0.11 -0.18,0.02 -0.13,0.05 -0.13,-0.13l-0.42 -0.31c-0.18,-0.01 -0.15,0.04 -0.13,-0.13 -0.17,0.02 -0.14,0.06 -0.11,-0.11 -0.18,0.02 -0.13,0.06 -0.13,-0.13l-0.41 -0.31c-0.18,-0.01 -0.15,0.04 -0.13,-0.13 -0.17,0.01 -0.13,0.06 -0.11,-0.11 -0.18,0.02 -0.13,0.06 -0.13,-0.13l-0.41 -0.3c-0.19,-0.01 -0.15,0.04 -0.13,-0.13 -0.17,0.01 -0.13,0.05 -0.11,-0.11 -0.18,0.02 -0.13,0.06 -0.13,-0.13l-0.41 -0.31c-0.19,-0.01 -0.15,0.04 -0.13,-0.13 -0.17,0.02 -0.13,0.06 -0.11,-0.11 -0.18,0.02 -0.13,0.06 -0.13,-0.13l-0.41 -0.31c-0.19,-0.01 -0.15,0.04 -0.13,-0.13 -0.17,0.02 -0.13,0.06 -0.11,-0.11 -0.18,0.02 -0.13,0.06 -0.13,-0.13l-0.41 -0.31c-0.18,-0.01 -0.15,0.04 -0.13,-0.13 -0.17,0.02 -0.14,0.06 -0.11,-0.11 -0.18,0.02 -0.13,0.06 -0.13,-0.13l-0.41 -0.31c-0.19,-0.01 -0.15,0.04 -0.13,-0.13 -0.17,0.01 -0.13,0.06 -0.11,-0.11 -0.18,0.02 -0.13,0.06 -0.13,-0.13l-0.29 -0.2c-0.19,0 -0.15,0.05 -0.13,-0.13 -0.17,0.02 -0.14,0.06 -0.12,-0.11 -0.17,0.01 -0.13,0.06 -0.11,-0.11 -0.18,0.02 -0.13,0.06 -0.13,-0.13l-0.3 -0.2c-0.19,-0 -0.15,0.05 -0.13,-0.13 -0.17,0.02 -0.13,0.06 -0.11,-0.11 -0.17,0.02 -0.13,0.06 -0.11,-0.11 -0.18,0.02 -0.13,0.06 -0.13,-0.13l-0.3 -0.2c-0.19,-0 -0.15,0.05 -0.13,-0.13 -0.17,0.02 -0.14,0.06 -0.11,-0.11 -0.17,0.02 -0.14,0.06 -0.12,-0.11 -0.18,0.02 -0.13,0.06 -0.13,-0.13l-0.41 -0.31c-0.18,-0.01 -0.15,0.04 -0.13,-0.13 -0.17,0.02 -0.14,0.06 -0.12,-0.11 -0.18,0.02 -0.13,0.06 -0.13,-0.13l-0.41 -0.31c-0.19,-0.01 -0.15,0.04 -0.13,-0.13 -0.17,0.02 -0.13,0.06 -0.11,-0.11 -0.18,0.02 -0.13,0.06 -0.13,-0.13l-0.3 -0.2c-0.19,0 -0.15,0.05 -0.13,-0.13 -0.17,0.02 -0.13,0.06 -0.12,-0.11 -0.17,0.01 -0.13,0.05 -0.11,-0.11 -0.18,0.01 -0.13,0.06 -0.13,-0.13l-0.3 -0.2c-0.19,-0 -0.15,0.05 -0.13,-0.13 -0.17,0.02 -0.13,0.06 -0.12,-0.11 -0.17,0.02 -0.13,0.06 -0.11,-0.11 -0.18,0.02 -0.13,0.06 -0.13,-0.13l-0.3 -0.2c-0.19,-0 -0.15,0.05 -0.13,-0.13 -0.17,0.02 -0.14,0.06 -0.12,-0.11 -0.17,0.02 -0.13,0.06 -0.11,-0.11 -0.18,0.02 -0.13,0.06 -0.13,-0.13l-0.29 -0.2c-0.19,0 -0.16,0.05 -0.13,-0.13 -0.17,0.02 -0.13,0.06 -0.11,-0.11 -0.17,0.02 -0.14,0.06 -0.12,-0.11 -0.18,0.02 -0.13,0.06 -0.13,-0.13l-0.29 -0.2c-0.19,-0 -0.16,0.05 -0.13,-0.13 -0.17,0.02 -0.13,0.06 -0.12,-0.11 -0.17,0.02 -0.13,0.06 -0.11,-0.11 -0.18,0.02 -0.13,0.06 -0.13,-0.13l-0.29 -0.2c-0.19,-0 -0.16,0.05 -0.13,-0.13 -0.17,0.02 -0.13,0.06 -0.12,-0.11 -0.17,0.01 -0.13,0.06 -0.11,-0.11 -0.18,0.02 -0.13,0.06 -0.13,-0.13l-0.3 -0.2c-0.19,-0 -0.15,0.05 -0.13,-0.13 -0.17,0.02 -0.14,0.06 -0.11,-0.11 -0.17,0.02 -0.14,0.06 -0.12,-0.11 -0.17,0.02 -0.13,0.06 -0.13,-0.13l-0.3 -0.2c-0.19,-0 -0.15,0.05 -0.13,-0.13 -0.17,0.02 -0.13,0.06 -0.11,-0.11 -0.17,0.02 -0.14,0.06 -0.12,-0.11 -0.17,0.02 -0.13,0.06 -0.13,-0.13l-0.3 -0.2c-0.19,-0.01 -0.15,0.05 -0.13,-0.13 -0.17,0.02 -0.13,0.06 -0.11,-0.11 -0.17,0.02 -0.13,0.06 -0.11,-0.11 -0.18,0.02 -0.13,0.06 -0.13,-0.13l-0.26 -0.21c-0.16,0.15 -0.11,0.02 -0.17,0.33l0.04 23.48z"/>
   <path class="fil0" d="M94.84 80.13c0.03,-0.06 0.05,-0 0.1,-0.27l0.03 -36.44c0,-1.66 0.17,-11.43 -0.08,-12.2l-31.8 -0.06c0.07,0.04 0,0.05 0.26,0.11l31.5 0.05 -0.02 48.8z"/>
   <path class="fil0" d="M5.11 95.85l-0.01 -75.85c-0.22,0.43 -0.12,1.91 -0.12,2.4 0,24.09 0.12,48.37 -0,72.43 -0,0.55 -0.06,0.69 0.13,1.03z"/>
   <path class="fil0" d="M16.8 85.72c0.13,-5.74 -0.01,-11.68 -0.01,-17.45 0,-17.04 -0.12,-34.39 0,-51.39 0,-0.42 0.05,-0.74 -0.1,-1.03 -0.2,2.62 -0.02,5.97 -0.02,8.67 0,20 0.1,40.19 -0,60.17 0,0.16 -0.01,0.42 0,0.57l0.13 0.46z"/>
   <path class="fil0" d="M62.26 24.04l-0.04 -23.48c0.05,-0.31 0.01,-0.19 0.17,-0.33l-0.26 -0.16c-0.1,4.01 -0.02,8.09 -0.02,12.08 0,1.46 -0.24,11.44 0.15,11.89z"/>
   <path class="fil0" d="M59.05 0.24c-0.07,-0.22 0.24,-0.25 -0.87,-0.23 -7.69,0.13 -16.3,0 -24.07,0l-8.34 0.13c2.69,0.09 5.62,-0.01 8.34,-0.01 2.78,0 5.55,0 8.32,0 2.06,0 15.83,-0.18 16.61,0.11z"/>
   <path class="fil0" d="M16.69 15.85l-0.15 -0.07c-0.37,-0.07 0.18,0 -0.19,-0.04l-3.38 0c-0.85,0 -3.24,-0.23 -3.81,0.14l7.53 -0.04z"/>
   <path class="fil0" d="M8.41 15.99c-0.25,-0.01 -0.21,-0.09 -0.21,0.1 0.25,0.02 0.21,0.09 0.21,-0.1z"/>
   <path class="fil0" d="M94.72 80.93c-0.19,0 -0.11,-0.03 -0.1,0.22 0.19,0 0.11,0.03 0.1,-0.22z"/>
   <path class="fil0" d="M24.94 0.24c-0.24,-0.02 -0.21,-0.09 -0.21,0.1 0.25,0.02 0.21,0.09 0.21,-0.1z"/>
   <path class="fil0" d="M21.17 89.89l-0.57 -0.15c0.2,0.13 -0.2,0.03 0.25,0.13 0.2,0.04 0.15,0.02 0.32,0.02z"/>
   <path class="fil0" d="M24.83 84.01c0,-0.19 0.03,-0.11 -0.21,-0.1 0,0.19 -0.04,0.12 0.21,0.1z"/>
   <path class="fil0" d="M21.96 3.01c-0.19,0 -0.12,-0.04 -0.1,0.2 0.19,0 0.11,0.03 0.1,-0.2z"/>
   <path class="fil0" d="M21.96 81.26c0.01,-0.24 0.08,-0.2 -0.1,-0.2 -0.01,0.24 -0.08,0.2 0.1,0.2z"/>
   <path class="fil0" d="M22.07 2.78c-0.18,0 -0.11,-0.04 -0.11,0.19 0.19,0 0.13,0.04 0.11,-0.19z"/>
   <path class="fil0" d="M91.62 84.02l-0.19 -0.02 0 0.13c0.23,0.01 0.19,0.07 0.19,-0.11z"/>
   <path class="fil0" d="M24.58 83.92c0,-0.2 0.04,-0.13 -0.19,-0.11 0,0.18 -0.03,0.11 0.19,0.11z"/>
   <path class="fil0" d="M5.43 18.64c-0.19,0 -0.12,-0.04 -0.11,0.19 0.19,0 0.12,0.04 0.11,-0.19z"/>
   <path class="fil0" d="M62.04 30.94c0,-0.19 0.04,-0.12 -0.19,-0.11 0,0.19 -0.04,0.12 0.19,0.11z"/>
   <path class="fil0" d="M24.6 0.36c-0.22,-0.02 -0.19,-0.08 -0.19,0.11 0.22,0 0.19,0.07 0.19,-0.11z"/>
   <path class="fil0" d="M94.61 81.28c-0.18,0 -0.11,-0.04 -0.11,0.19 0.19,0 0.13,0.04 0.11,-0.19z"/>
   <path class="fil0" d="M5.54 18.41c-0.18,0 -0.11,-0.04 -0.11,0.19 0.19,0 0.13,0.04 0.11,-0.19z"/>
   <path class="fil0" d="M77.97 97.14c-0.19,0 -0.12,-0.04 -0.11,0.19 0.19,0 0.12,0.04 0.11,-0.19z"/>
   <path class="fil0" d="M22.19 2.56c-0.18,0 -0.11,-0.04 -0.12,0.18 0.2,0 0.14,0.04 0.12,-0.18z"/>
   <path class="fil0" d="M7.94 99.66c0,-0.19 0.04,-0.13 -0.19,-0.11 0,0.18 -0.03,0.11 0.19,0.11z"/>
   <path class="fil0" d="M8.06 16.1c-0.22,-0.01 -0.19,-0.08 -0.19,0.11 0.22,0 0.19,0.07 0.19,-0.11z"/>
   <path class="fil0" d="M17.25 87.31c0,-0.22 0.06,-0.18 -0.12,-0.18 -0.01,0.22 -0.07,0.18 0.12,0.18z"/>
   <path class="fil0" d="M7.83 16.2c-0.22,0 -0.19,-0.07 -0.19,0.11 0.22,0.01 0.19,0.08 0.19,-0.11z"/>
   <path class="fil0" d="M7.71 99.56c0,-0.2 0.04,-0.13 -0.18,-0.12 0,0.18 -0.04,0.11 0.18,0.12z"/>
   <path class="fil0" d="M75.64 99.54c-0.22,-0 -0.19,-0.07 -0.19,0.11 0.22,0.01 0.19,0.07 0.19,-0.11z"/>
   <path class="fil0" d="M59.53 28.61c0,-0.22 0.07,-0.19 -0.11,-0.19 -0.01,0.22 -0.07,0.19 0.11,0.19z"/>
   <path class="fil0" d="M19.64 89.53c0,-0.18 0.04,-0.12 -0.19,-0.11 0,0.19 -0.04,0.12 0.19,0.11z"/>
   <path class="fil0" d="M65.07 27.79c0,-0.19 0.04,-0.12 -0.19,-0.11 0,0.19 -0.04,0.12 0.19,0.11z"/>
   <path class="fil0" d="M62.69 25.56c-0,-0.22 0.06,-0.18 -0.12,-0.18 -0.02,0.22 -0.07,0.18 0.12,0.18z"/>
   <path class="fil0" d="M64.85 27.68c0,-0.19 0.04,-0.13 -0.18,-0.12 0,0.19 -0.04,0.12 0.18,0.12z"/>
   <path class="fil0" d="M7.6 16.31c-0.22,0 -0.18,-0.06 -0.18,0.12 0.22,0.01 0.18,0.07 0.18,-0.12z"/>
   <path class="fil0" d="M5.65 18.19c-0.18,0 -0.11,-0.04 -0.12,0.18 0.19,0 0.13,0.04 0.12,-0.18z"/>
   <path class="fil0" d="M94.5 81.51c-0.19,0 -0.12,-0.04 -0.12,0.18 0.19,0 0.12,0.04 0.12,-0.18z"/>
   <path class="fil0" d="M59.65 28.83c0,-0.21 0.06,-0.17 -0.12,-0.17 -0,0.22 -0.07,0.17 0.12,0.17z"/>
   <path class="fil0" d="M24.26 83.79c0,-0.17 0.04,-0.11 -0.17,-0.12 0,0.2 -0.04,0.14 0.17,0.12z"/>
   <path class="fil0" d="M92.18 83.8c-0.22,-0.01 -0.19,-0.07 -0.19,0.11 0.22,0 0.19,0.07 0.19,-0.11z"/>
   <path class="fil0" d="M22.2 81.8c-0.01,-0.21 0.06,-0.18 -0.12,-0.18 -0.01,0.22 -0.07,0.18 0.12,0.18z"/>
   <path class="fil0" d="M19.41 89.43c0,-0.19 0.04,-0.13 -0.18,-0.12 0,0.18 -0.04,0.12 0.18,0.12z"/>
   <path class="fil0" d="M24.36 0.46c-0.22,-0 -0.18,-0.07 -0.18,0.12 0.22,0 0.18,0.07 0.18,-0.12z"/>
   <path class="fil0" d="M7.48 99.44c0,-0.19 0.04,-0.13 -0.17,-0.13 0,0.18 -0.04,0.12 0.17,0.13z"/>
   <path class="fil0" d="M61.58 30.72c0,-0.19 0.04,-0.13 -0.17,-0.12 0,0.18 -0.04,0.12 0.17,0.12z"/>
   <path class="fil0" d="M5.67 97.65c-0,-0.21 0.06,-0.17 -0.12,-0.17 -0.01,0.21 -0.07,0.17 0.12,0.17z"/>
   <path class="fil0" d="M5.55 97.43c0,-0.21 0.06,-0.18 -0.11,-0.18 -0.01,0.22 -0.07,0.18 0.11,0.18z"/>
   <path class="fil0" d="M92.41 83.69c-0.22,-0.01 -0.18,-0.07 -0.18,0.12 0.21,0 0.18,0.06 0.18,-0.12z"/>
   <path class="fil0" d="M61.8 30.83c0,-0.19 0.04,-0.13 -0.18,-0.11 0,0.18 -0.04,0.11 0.18,0.11z"/>
   <path class="fil0" d="M92.62 83.57c-0.21,-0 -0.17,-0.06 -0.17,0.13 0.21,-0 0.17,0.06 0.17,-0.13z"/>
   <path class="fil0" d="M19.18 89.32c0,-0.19 0.04,-0.13 -0.17,-0.13 0,0.18 -0.04,0.12 0.17,0.13z"/>
   <path class="fil0" d="M76.08 99.3c-0.21,0.01 -0.17,-0.05 -0.17,0.13 0.21,0 0.17,0.06 0.17,-0.13z"/>
   <path class="fil0" d="M75.86 99.42c-0.21,0 -0.17,-0.06 -0.17,0.12 0.21,0 0.17,0.06 0.17,-0.12z"/>
   <path class="fil0" d="M77.86 97.37c-0.19,0 -0.12,-0.04 -0.12,0.17 0.18,0 0.12,0.04 0.12,-0.17z"/>
   <path class="fil0" d="M94.39 81.74c-0.18,0 -0.12,-0.04 -0.12,0.17 0.19,0 0.13,0.04 0.12,-0.17z"/>
   <path class="fil0" d="M22.3 2.34c-0.18,0 -0.12,-0.04 -0.13,0.17 0.19,0 0.13,0.04 0.13,-0.17z"/>
   <path class="fil0" d="M17.37 87.53c-0.01,-0.2 0.06,-0.17 -0.12,-0.17 -0.01,0.21 -0.07,0.17 0.12,0.17z"/>
   <path class="fil0" d="M22.42 82.14c0,-0.2 0.06,-0.16 -0.13,-0.16 0.01,0.2 -0.05,0.16 0.13,0.16z"/>
   <path class="fil0" d="M62.81 25.78c-0.01,-0.2 0.05,-0.17 -0.13,-0.17 -0.01,0.21 -0.07,0.17 0.13,0.17z"/>
   <path class="fil0" d="M24.13 0.57c-0.21,-0 -0.17,-0.06 -0.17,0.13 0.21,-0 0.17,0.06 0.17,-0.13z"/>
   <path class="fil0" d="M23.56 83.36c0,-0.19 0.05,-0.14 -0.15,-0.15 0,0.19 -0.05,0.13 0.15,0.15z"/>
   <path class="fil0" d="M94.18 82.09c-0.19,0 -0.14,-0.05 -0.14,0.16 0.19,0 0.13,0.04 0.14,-0.16z"/>
   <path class="fil0" d="M63.03 26.13c-0.01,-0.2 0.05,-0.16 -0.14,-0.16 0,0.2 -0.05,0.16 0.14,0.16z"/>
   <path class="fil0" d="M68.66 5.65c0.07,-0.2 0.09,-0.14 -0.13,-0.13 -0.02,0.17 -0.06,0.12 0.13,0.13z"/>
   <path class="fil0" d="M17.59 87.87c-0,-0.2 0.05,-0.16 -0.13,-0.16 0,0.2 -0.05,0.16 0.13,0.16z"/>
   <path class="fil0" d="M22.43 2.13c-0.19,0 -0.14,-0.04 -0.14,0.16 0.19,0 0.13,0.04 0.14,-0.16z"/>
   <path class="fil0" d="M5.89 97.99c-0,-0.2 0.05,-0.16 -0.14,-0.16 0.01,0.2 -0.05,0.16 0.14,0.16z"/>
   <path class="fil0" d="M76.42 99.07c-0.2,0.01 -0.15,-0.04 -0.15,0.14 0.2,-0 0.15,0.05 0.15,-0.14z"/>
   <path class="fil0" d="M77.53 97.94c-0.19,0 -0.13,-0.04 -0.14,0.15 0.19,0 0.14,0.04 0.14,-0.15z"/>
   <path class="fil0" d="M61.35 30.61c0,-0.19 0.04,-0.13 -0.16,-0.13 0,0.19 -0.04,0.13 0.16,0.13z"/>
   <path class="fil0" d="M5.78 17.98c-0.19,0 -0.13,-0.04 -0.13,0.16 0.19,0 0.13,0.04 0.13,-0.16z"/>
   <path class="fil0" d="M77.75 97.6c-0.18,0 -0.12,-0.04 -0.13,0.16 0.19,0 0.13,0.04 0.13,-0.16z"/>
   <path class="fil0" d="M23.9 83.59c0,-0.19 0.04,-0.13 -0.16,-0.13 0,0.18 -0.04,0.13 0.16,0.13z"/>
   <path class="fil0" d="M64.61 27.57c0,-0.18 0.04,-0.13 -0.16,-0.13 0,0.18 -0.04,0.13 0.16,0.13z"/>
   <path class="fil0" d="M7.26 99.32c0,-0.18 0.04,-0.13 -0.15,-0.14 0,0.19 -0.04,0.14 0.15,0.14z"/>
   <path class="fil0" d="M7.37 16.43c-0.2,0 -0.16,-0.06 -0.16,0.13 0.2,-0.01 0.16,0.05 0.16,-0.13z"/>
   <path class="fil0" d="M84.29 19.04c0,-0.19 0.05,-0.15 -0.13,-0.13 -0.02,0.18 -0.06,0.12 0.13,0.13z"/>
   <path class="fil0" d="M59.75 29.03c0.01,-0.19 0.06,-0.15 -0.11,-0.15 -0.01,0.2 -0.07,0.17 0.11,0.15z"/>
   <path class="fil0" d="M23.2 1.25c-0.18,-0.02 -0.13,-0.06 -0.13,0.13 0.19,-0.01 0.15,0.04 0.13,-0.13z"/>
   <path class="fil0" d="M92.16 25.78c0,-0.19 0.05,-0.15 -0.13,-0.13 -0.02,0.17 -0.06,0.12 0.13,0.13z"/>
   <path class="fil0" d="M5.99 17.67c-0.17,-0.02 -0.11,-0.05 -0.13,0.14 0.19,0 0.14,0.05 0.13,-0.14z"/>
   <path class="fil0" d="M65.51 2.95c0,-0.19 0.05,-0.15 -0.13,-0.13 -0.02,0.17 -0.06,0.12 0.13,0.13z"/>
   <path class="fil0" d="M91.37 25.11c0,-0.19 0.05,-0.15 -0.13,-0.13 -0.02,0.17 -0.06,0.12 0.13,0.13z"/>
   <path class="fil0" d="M89.55 23.52c0.02,-0.17 0.06,-0.12 -0.13,-0.13 0,0.19 -0.05,0.15 0.13,0.13z"/>
   <path class="fil0" d="M7.03 16.64c-0.19,0.01 -0.16,-0.05 -0.14,0.13 0.18,0.02 0.14,0.06 0.14,-0.13z"/>
   <path class="fil0" d="M18.96 89.2c0,-0.17 0.04,-0.13 -0.14,-0.11 -0.02,0.18 -0.06,0.12 0.14,0.11z"/>
   <path class="fil0" d="M59.98 29.37c0.02,-0.18 0.06,-0.14 -0.12,-0.14 0,0.19 -0.06,0.17 0.12,0.14z"/>
   <path class="fil0" d="M76.42 12.29c0,-0.19 0.05,-0.15 -0.13,-0.13 -0.02,0.17 -0.06,0.12 0.13,0.13z"/>
   <path class="fil0" d="M77.2 12.96c0,-0.19 0.05,-0.15 -0.13,-0.13 -0.02,0.17 -0.06,0.12 0.13,0.13z"/>
   <path class="fil0" d="M66.3 3.62c0,-0.18 0.04,-0.14 -0.13,-0.13 -0.02,0.17 -0.06,0.12 0.13,0.13z"/>
   <path class="fil0" d="M83.5 18.36c0,-0.19 0.05,-0.15 -0.13,-0.13 -0.02,0.17 -0.06,0.12 0.13,0.13z"/>
   <path class="fil0" d="M85.07 19.71c0,-0.19 0.05,-0.15 -0.13,-0.13 -0.02,0.18 -0.06,0.12 0.13,0.13z"/>
   <path class="fil0" d="M92.96 83.34c-0.19,-0 -0.17,-0.06 -0.14,0.12 0.18,0.01 0.14,0.06 0.14,-0.12z"/>
   <path class="fil0" d="M70.12 6.89c0,-0.19 0.05,-0.15 -0.13,-0.13 -0.02,0.17 -0.05,0.12 0.13,0.13z"/>
   <path class="fil0" d="M59.86 29.17c0.01,-0.2 0.06,-0.17 -0.11,-0.15 -0.01,0.19 -0.06,0.15 0.11,0.15z"/>
   <path class="fil0" d="M88.22 22.41c0,-0.19 0.05,-0.15 -0.13,-0.13 -0.02,0.17 -0.06,0.12 0.13,0.13z"/>
   <path class="fil0" d="M88.77 22.84c0.02,-0.17 0.05,-0.12 -0.13,-0.13 0,0.18 -0.05,0.14 0.13,0.13z"/>
   <path class="fil0" d="M67.09 4.3c0,-0.18 0.04,-0.14 -0.13,-0.13 -0.02,0.18 -0.06,0.13 0.13,0.13z"/>
   <path class="fil0" d="M87.44 21.73c0,-0.19 0.05,-0.15 -0.13,-0.13 -0.02,0.17 -0.06,0.12 0.13,0.13z"/>
   <path class="fil0" d="M64.25 27.34c0.03,-0.17 0.06,-0.12 -0.14,-0.12 0,0.18 -0.04,0.13 0.14,0.12z"/>
   <path class="fil0" d="M73.38 9.69c0,-0.18 0.05,-0.14 -0.13,-0.13 -0.02,0.18 -0.06,0.13 0.13,0.13z"/>
   <path class="fil0" d="M22.53 82.33c0.02,-0.19 0.06,-0.15 -0.11,-0.15 -0,0.2 -0.06,0.17 0.11,0.15z"/>
   <path class="fil0" d="M81.14 16.33c0,-0.18 0.05,-0.14 -0.13,-0.13 -0.02,0.17 -0.06,0.12 0.13,0.13z"/>
   <path class="fil0" d="M22.99 1.46c-0.19,0 -0.15,-0.05 -0.13,0.13 0.17,0.02 0.12,0.06 0.13,-0.13z"/>
   <path class="fil0" d="M75.63 11.61c0,-0.19 0.05,-0.15 -0.13,-0.13 -0.02,0.17 -0.05,0.12 0.13,0.13z"/>
   <path class="fil0" d="M61.01 30.39c0,-0.18 0.04,-0.14 -0.14,-0.12 -0.02,0.17 -0.05,0.12 0.14,0.12z"/>
   <path class="fil0" d="M69.44 6.32c0,-0.18 0.05,-0.14 -0.13,-0.13 -0.02,0.18 -0.06,0.13 0.13,0.13z"/>
   <path class="fil0" d="M73.81 10.02c0.02,-0.17 0.06,-0.12 -0.13,-0.13 0,0.18 -0.05,0.14 0.13,0.13z"/>
   <path class="fil0" d="M6.89 16.77c-0.18,-0.02 -0.13,-0.06 -0.13,0.12 0.19,0 0.16,0.05 0.13,-0.12z"/>
   <path class="fil0" d="M74.06 10.26c0,-0.19 0.05,-0.15 -0.13,-0.13 -0.02,0.17 -0.05,0.12 0.13,0.13z"/>
   <path class="fil0" d="M94.52 27.81c0,-0.19 0.05,-0.15 -0.13,-0.13 -0.02,0.17 -0.06,0.12 0.13,0.13z"/>
   <path class="fil0" d="M85.86 20.38c0,-0.18 0.05,-0.14 -0.13,-0.13 -0.02,0.17 -0.06,0.12 0.13,0.13z"/>
   <path class="fil0" d="M63.15 0.93c0,-0.19 0.05,-0.15 -0.13,-0.13 -0.02,0.18 -0.06,0.12 0.13,0.13z"/>
   <path class="fil0" d="M85.62 20.15c0.02,-0.17 0.05,-0.12 -0.13,-0.13 0,0.19 -0.05,0.15 0.13,0.13z"/>
   <path class="fil0" d="M6.11 17.53c-0.18,0 -0.14,-0.04 -0.12,0.13 0.18,0.02 0.12,0.06 0.12,-0.13z"/>
   <path class="fil0" d="M93.49 26.89c0.02,-0.17 0.06,-0.12 -0.13,-0.13 0,0.19 -0.05,0.15 0.13,0.13z"/>
   <path class="fil0" d="M79.56 14.99c0,-0.19 0.05,-0.15 -0.13,-0.13 -0.02,0.17 -0.06,0.12 0.13,0.13z"/>
   <path class="fil0" d="M80.89 16.1c0.02,-0.18 0.06,-0.12 -0.13,-0.13 0,0.19 -0.05,0.15 0.13,0.13z"/>
   <path class="fil0" d="M67.87 4.97c0,-0.19 0.05,-0.15 -0.13,-0.13 -0.02,0.17 -0.06,0.12 0.13,0.13z"/>
   <path class="fil0" d="M22.66 82.46c-0.01,-0.19 0.04,-0.15 -0.13,-0.13 -0.02,0.18 -0.06,0.13 0.13,0.13z"/>
   <path class="fil0" d="M23.77 0.8c-0.19,-0.01 -0.14,-0.06 -0.14,0.12 0.19,0 0.16,0.06 0.14,-0.12z"/>
   <path class="fil0" d="M80.35 15.66c0,-0.19 0.05,-0.15 -0.13,-0.13 -0.02,0.17 -0.06,0.12 0.13,0.13z"/>
   <path class="fil0" d="M89.01 23.08c0,-0.18 0.05,-0.14 -0.13,-0.13 -0.02,0.17 -0.05,0.12 0.13,0.13z"/>
   <path class="fil0" d="M73.02 9.35c0.02,-0.17 0.06,-0.12 -0.13,-0.13 0,0.19 -0.05,0.15 0.13,0.13z"/>
   <path class="fil0" d="M76.96 12.72c0.02,-0.17 0.05,-0.12 -0.13,-0.13 0,0.18 -0.05,0.14 0.13,0.13z"/>
   <path class="fil0" d="M91.91 25.54c0.02,-0.17 0.06,-0.12 -0.13,-0.13 0,0.19 -0.05,0.15 0.13,0.13z"/>
   <path class="fil0" d="M81.68 16.77c0.02,-0.17 0.06,-0.12 -0.13,-0.13 0,0.18 -0.05,0.14 0.13,0.13z"/>
   <path class="fil0" d="M93.26 83.12c-0.18,-0.02 -0.13,-0.06 -0.13,0.13 0.19,-0.01 0.15,0.04 0.13,-0.13z"/>
   <path class="fil0" d="M86.65 21.06c0,-0.19 0.05,-0.15 -0.13,-0.13 -0.02,0.17 -0.06,0.12 0.13,0.13z"/>
   <path class="fil0" d="M6.11 98.3c0.01,-0.18 0.06,-0.13 -0.13,-0.13 0.01,0.19 -0.04,0.15 0.13,0.13z"/>
   <path class="fil0" d="M92.7 26.22c0.02,-0.17 0.05,-0.12 -0.13,-0.13 0,0.19 -0.05,0.15 0.13,0.13z"/>
   <path class="fil0" d="M64.4 27.45c0,-0.17 0.04,-0.13 -0.15,-0.11 -0.02,0.17 -0.05,0.12 0.15,0.11z"/>
   <path class="fil0" d="M77.99 13.64c0,-0.19 0.05,-0.15 -0.13,-0.13 -0.02,0.17 -0.05,0.12 0.13,0.13z"/>
   <path class="fil0" d="M17.8 88.18c0.02,-0.18 0.06,-0.13 -0.12,-0.13 0,0.19 -0.05,0.15 0.12,0.13z"/>
   <path class="fil0" d="M89.8 23.76c0,-0.19 0.05,-0.15 -0.13,-0.13 -0.02,0.17 -0.05,0.12 0.13,0.13z"/>
   <path class="fil0" d="M92.95 26.46c0,-0.18 0.05,-0.14 -0.13,-0.13 -0.02,0.17 -0.06,0.12 0.13,0.13z"/>
   <path class="fil0" d="M91.13 24.87c0.02,-0.17 0.06,-0.12 -0.13,-0.13 0,0.18 -0.05,0.15 0.13,0.13z"/>
   <path class="fil0" d="M84.83 19.47c0.02,-0.17 0.05,-0.12 -0.13,-0.13 0,0.18 -0.05,0.14 0.13,0.13z"/>
   <path class="fil0" d="M81.93 17.01c0,-0.19 0.05,-0.15 -0.13,-0.13 -0.02,0.17 -0.06,0.12 0.13,0.13z"/>
   <path class="fil0" d="M92.81 83.46c-0.18,-0.01 -0.14,-0.06 -0.14,0.11 0.2,0 0.17,0.06 0.14,-0.11z"/>
   <path class="fil0" d="M82.46 17.44c0.02,-0.17 0.06,-0.12 -0.13,-0.13 0,0.18 -0.05,0.15 0.13,0.13z"/>
   <path class="fil0" d="M63.93 1.6c0,-0.18 0.05,-0.14 -0.13,-0.13 -0.02,0.17 -0.06,0.12 0.13,0.13z"/>
   <path class="fil0" d="M65.93 3.28c0.02,-0.17 0.06,-0.12 -0.13,-0.13 0,0.18 -0.05,0.14 0.13,0.13z"/>
   <path class="fil0" d="M93.73 27.13c0,-0.18 0.05,-0.15 -0.13,-0.13 -0.02,0.17 -0.06,0.12 0.13,0.13z"/>
   <path class="fil0" d="M71.81 8.35c0,-0.18 0.05,-0.14 -0.13,-0.13 -0.02,0.17 -0.06,0.12 0.13,0.13z"/>
   <path class="fil0" d="M69.87 6.65c0.02,-0.17 0.05,-0.12 -0.13,-0.13 0,0.18 -0.05,0.14 0.13,0.13z"/>
   <path class="fil0" d="M76.17 12.05c0.02,-0.17 0.05,-0.12 -0.13,-0.13 0,0.18 -0.05,0.14 0.13,0.13z"/>
   <path class="fil0" d="M74.59 10.7c0.02,-0.17 0.06,-0.12 -0.13,-0.13 0,0.19 -0.05,0.15 0.13,0.13z"/>
   <path class="fil0" d="M77.74 13.4c0.02,-0.17 0.05,-0.12 -0.13,-0.13 0,0.19 -0.05,0.15 0.13,0.13z"/>
   <path class="fil0" d="M66.72 3.95c0.02,-0.17 0.06,-0.12 -0.13,-0.13 0,0.19 -0.05,0.15 0.13,0.13z"/>
   <path class="fil0" d="M23.91 0.69c-0.2,-0.01 -0.17,-0.07 -0.15,0.11 0.18,0.01 0.15,0.06 0.15,-0.11z"/>
   <path class="fil0" d="M70.66 7.32c0.02,-0.17 0.06,-0.12 -0.13,-0.13 0,0.19 -0.05,0.15 0.13,0.13z"/>
   <path class="fil0" d="M60.87 30.27c0.02,-0.17 0.06,-0.12 -0.13,-0.13 0,0.18 -0.04,0.14 0.13,0.13z"/>
   <path class="fil0" d="M64.72 2.27c0,-0.18 0.05,-0.14 -0.13,-0.13 -0.02,0.17 -0.06,0.12 0.13,0.13z"/>
   <path class="fil0" d="M86.4 20.82c0.02,-0.17 0.06,-0.12 -0.13,-0.13 0,0.19 -0.05,0.15 0.13,0.13z"/>
   <path class="fil0" d="M18.5 88.87c0,-0.18 0.04,-0.14 -0.14,-0.13 -0.02,0.17 -0.05,0.11 0.14,0.13z"/>
   <path class="fil0" d="M69.08 5.98c0.02,-0.17 0.06,-0.12 -0.13,-0.13 0,0.19 -0.05,0.14 0.13,0.13z"/>
   <path class="fil0" d="M77.19 98.39c-0.18,0 -0.15,-0.05 -0.13,0.13 0.17,0.02 0.12,0.06 0.13,-0.13z"/>
   <path class="fil0" d="M87.98 22.17c0.02,-0.17 0.06,-0.12 -0.13,-0.13 0,0.19 -0.05,0.15 0.13,0.13z"/>
   <path class="fil0" d="M93.95 82.43c-0.18,0 -0.14,-0.05 -0.13,0.13 0.17,0.02 0.12,0.05 0.13,-0.13z"/>
   <path class="fil0" d="M6.92 99.09c0,-0.18 0.04,-0.13 -0.14,-0.12 -0.02,0.17 -0.05,0.12 0.14,0.12z"/>
   <path class="fil0" d="M62.79 0.57c0.02,-0.17 0.05,-0.12 -0.13,-0.13 0,0.18 -0.05,0.14 0.13,0.13z"/>
   <path class="fil0" d="M72.59 9.02c0,-0.18 0.05,-0.14 -0.13,-0.13 -0.02,0.17 -0.05,0.12 0.13,0.13z"/>
   <path class="fil0" d="M18.81 89.08c0.02,-0.17 0.05,-0.12 -0.14,-0.12 0,0.18 -0.04,0.13 0.14,0.12z"/>
   <path class="fil0" d="M78.53 14.07c0.02,-0.17 0.06,-0.12 -0.13,-0.13 0,0.18 -0.05,0.15 0.13,0.13z"/>
   <path class="fil0" d="M70.9 7.56c0,-0.18 0.05,-0.15 -0.13,-0.13 -0.02,0.17 -0.06,0.12 0.13,0.13z"/>
   <path class="fil0" d="M65.15 2.6c0.02,-0.17 0.06,-0.12 -0.13,-0.13 0,0.18 -0.05,0.14 0.13,0.13z"/>
   <path class="fil0" d="M76.84 98.75c-0.18,-0.02 -0.13,-0.06 -0.13,0.13 0.18,-0 0.15,0.04 0.13,-0.13z"/>
   <path class="fil0" d="M23.44 1.01c-0.18,0.01 -0.15,-0.04 -0.13,0.13 0.18,0.01 0.13,0.05 0.13,-0.13z"/>
   <path class="fil0" d="M94.28 27.57c0.02,-0.17 0.06,-0.12 -0.13,-0.13 0,0.19 -0.05,0.15 0.13,0.13z"/>
   <path class="fil0" d="M83.25 18.12c0.02,-0.17 0.06,-0.12 -0.13,-0.13 0,0.19 -0.05,0.15 0.13,0.13z"/>
   <path class="fil0" d="M90.59 24.43c0,-0.19 0.05,-0.15 -0.13,-0.13 -0.02,0.17 -0.06,0.12 0.13,0.13z"/>
   <path class="fil0" d="M87.19 21.5c0.02,-0.17 0.06,-0.12 -0.13,-0.13 0,0.18 -0.05,0.15 0.13,0.13z"/>
   <path class="fil0" d="M84.04 18.8c0.02,-0.17 0.05,-0.12 -0.13,-0.13 0,0.18 -0.04,0.14 0.13,0.13z"/>
   <path class="fil0" d="M78.77 14.31c0,-0.19 0.05,-0.15 -0.13,-0.13 -0.02,0.17 -0.06,0.12 0.13,0.13z"/>
   <path class="fil0" d="M82.71 17.69c0,-0.18 0.05,-0.15 -0.13,-0.13 -0.02,0.17 -0.05,0.12 0.13,0.13z"/>
   <path class="fil0" d="M68.3 5.3c0.02,-0.17 0.05,-0.12 -0.13,-0.13 0,0.18 -0.05,0.14 0.13,0.13z"/>
   <path class="fil0" d="M72.23 8.67c0.02,-0.17 0.06,-0.12 -0.13,-0.13 0,0.18 -0.05,0.14 0.13,0.13z"/>
   <path class="fil0" d="M60.1 29.5c-0.01,-0.19 0.04,-0.15 -0.13,-0.13 -0.02,0.18 -0.06,0.13 0.13,0.13z"/>
   <path class="fil0" d="M90.34 24.2c0.02,-0.17 0.06,-0.12 -0.13,-0.13 0,0.19 -0.05,0.15 0.13,0.13z"/>
   <path class="fil0" d="M75.38 11.37c0.02,-0.17 0.05,-0.12 -0.13,-0.13 0,0.18 -0.05,0.14 0.13,0.13z"/>
   <path class="fil0" d="M63.24 26.44c0.02,-0.18 0.06,-0.13 -0.12,-0.13 0,0.19 -0.05,0.16 0.12,0.13z"/>
   <path class="fil0" d="M64.36 1.93c0.02,-0.17 0.06,-0.12 -0.13,-0.13 0,0.18 -0.04,0.14 0.13,0.13z"/>
   <path class="fil0" d="M63.57 1.25c0.02,-0.17 0.06,-0.12 -0.13,-0.13 0,0.18 -0.05,0.14 0.13,0.13z"/>
   <path class="fil0" d="M63.93 27.13c0,-0.18 0.05,-0.14 -0.13,-0.13 -0.02,0.17 -0.06,0.12 0.13,0.13z"/>
   <path class="fil0" d="M74.84 10.94c0,-0.19 0.05,-0.15 -0.13,-0.13 -0.02,0.17 -0.05,0.12 0.13,0.13z"/>
   <path class="fil0" d="M67.51 4.63c0.02,-0.17 0.05,-0.12 -0.13,-0.13 0,0.18 -0.05,0.14 0.13,0.13z"/>
   <path class="fil0" d="M71.44 8c0.02,-0.17 0.06,-0.12 -0.13,-0.13 0,0.18 -0.05,0.14 0.13,0.13z"/>
   <path class="fil0" d="M22.64 1.81c-0.17,-0.02 -0.12,-0.06 -0.12,0.13 0.18,0 0.13,0.04 0.12,-0.13z"/>
   <path class="fil0" d="M80.11 15.42c0.02,-0.17 0.05,-0.12 -0.13,-0.13 0,0.18 -0.05,0.14 0.13,0.13z"/>
   <path class="fil0" d="M79.32 14.75c0.02,-0.17 0.05,-0.12 -0.13,-0.13 0,0.18 -0.05,0.15 0.13,0.13z"/>
   <path class="fil0" d="M21.77 80.51l-0.16 -0.43c0.04,0.39 -0.06,0.19 0.16,0.43z"/>
   <path class="fil0" d="M21.61 4.29l0.15 -0.45c-0.19,0.24 -0.12,0.04 -0.15,0.45z"/>
   <path class="fil0" d="M78.17 96.27c0.19,-0.23 0.12,-0.02 0.16,-0.43l-0.16 0.43z"/>
   <path class="fil0" d="M6.56 98.76c0.02,-0.17 0.06,-0.13 -0.11,-0.11 -0.02,0.17 -0.06,0.13 0.11,0.11z"/>
   <path class="fil0" d="M6.44 98.65c0.02,-0.17 0.06,-0.13 -0.11,-0.11 -0.02,0.17 -0.06,0.13 0.11,0.11z"/>
   <path class="fil0" d="M22.86 1.58c-0.17,-0.02 -0.13,-0.06 -0.11,0.11 0.17,0.02 0.13,0.06 0.11,-0.11z"/>
   <path class="fil0" d="M93.61 82.79c-0.17,-0.02 -0.13,-0.06 -0.11,0.11 0.17,0.02 0.13,0.06 0.11,-0.11z"/>
   <path class="fil0" d="M6.33 98.53c0.02,-0.17 0.06,-0.13 -0.11,-0.11 -0.02,0.17 -0.06,0.13 0.11,0.11z"/>
   <path class="fil0" d="M78.65 14.18c0.02,-0.17 0.06,-0.13 -0.11,-0.11 -0.02,0.17 -0.06,0.13 0.11,0.11z"/>
   <path class="fil0" d="M18.25 88.63c0.02,-0.17 0.06,-0.13 -0.11,-0.11 -0.02,0.17 -0.06,0.13 0.11,0.11z"/>
   <path class="fil0" d="M94.39 27.68c0.02,-0.17 0.06,-0.13 -0.11,-0.11 -0.02,0.17 -0.06,0.13 0.11,0.11z"/>
   <path class="fil0" d="M86.52 20.93c0.02,-0.17 0.06,-0.13 -0.12,-0.11 -0.02,0.17 -0.06,0.13 0.12,0.11z"/>
   <path class="fil0" d="M6.67 98.87c0.02,-0.17 0.06,-0.13 -0.11,-0.11 -0.02,0.17 -0.06,0.13 0.11,0.11z"/>
   <path class="fil0" d="M63.69 1.36c0.02,-0.17 0.06,-0.13 -0.12,-0.11 -0.02,0.17 -0.06,0.13 0.12,0.11z"/>
   <path class="fil0" d="M93.5 82.9c-0.17,-0.02 -0.13,-0.06 -0.11,0.11 0.17,0.02 0.13,0.06 0.11,-0.11z"/>
   <path class="fil0" d="M87.31 21.6c0.02,-0.17 0.06,-0.12 -0.12,-0.11 -0.02,0.17 -0.06,0.13 0.12,0.11z"/>
   <path class="fil0" d="M93.61 27c0.02,-0.17 0.06,-0.12 -0.12,-0.11 -0.02,0.17 -0.06,0.13 0.12,0.11z"/>
   <path class="fil0" d="M93.72 82.67c-0.17,-0.02 -0.13,-0.06 -0.11,0.11 0.17,0.02 0.13,0.06 0.11,-0.11z"/>
   <path class="fil0" d="M71.56 8.11c0.02,-0.17 0.05,-0.13 -0.12,-0.11 -0.02,0.17 -0.06,0.13 0.12,0.11z"/>
   <path class="fil0" d="M85.73 20.26c0.02,-0.17 0.06,-0.13 -0.11,-0.11 -0.02,0.17 -0.06,0.13 0.11,0.11z"/>
   <path class="fil0" d="M89.67 23.63c0.02,-0.17 0.06,-0.13 -0.11,-0.11 -0.02,0.17 -0.06,0.13 0.11,0.11z"/>
   <path class="fil0" d="M70.78 7.43c0.02,-0.17 0.05,-0.13 -0.12,-0.11 -0.02,0.17 -0.06,0.13 0.12,0.11z"/>
   <path class="fil0" d="M69.31 6.19c0.02,-0.17 0.06,-0.12 -0.12,-0.11 -0.02,0.17 -0.05,0.13 0.12,0.11z"/>
   <path class="fil0" d="M68.53 5.52c0.02,-0.17 0.06,-0.13 -0.12,-0.11 -0.02,0.17 -0.05,0.13 0.12,0.11z"/>
   <path class="fil0" d="M6.22 98.42c0.02,-0.17 0.06,-0.13 -0.11,-0.11 -0.02,0.17 -0.06,0.13 0.11,0.11z"/>
   <path class="fil0" d="M22.75 1.7c-0.17,-0.02 -0.13,-0.06 -0.11,0.12 0.17,0.02 0.13,0.06 0.11,-0.12z"/>
   <path class="fil0" d="M79.43 14.86c0.02,-0.17 0.06,-0.13 -0.11,-0.11 -0.02,0.17 -0.06,0.13 0.11,0.11z"/>
   <path class="fil0" d="M63.69 26.89c0.02,-0.17 0.06,-0.13 -0.11,-0.11 -0.02,0.17 -0.06,0.13 0.11,0.11z"/>
   <path class="fil0" d="M67.74 4.85c0.02,-0.17 0.06,-0.13 -0.12,-0.11 -0.02,0.17 -0.05,0.13 0.12,0.11z"/>
   <path class="fil0" d="M75.5 11.48c0.02,-0.17 0.06,-0.13 -0.11,-0.11 -0.02,0.17 -0.06,0.13 0.11,0.11z"/>
   <path class="fil0" d="M63.35 26.55c0.02,-0.17 0.06,-0.13 -0.11,-0.11 -0.02,0.17 -0.06,0.13 0.11,0.11z"/>
   <path class="fil0" d="M73.25 9.57c0.02,-0.17 0.05,-0.12 -0.12,-0.11 -0.02,0.17 -0.06,0.13 0.12,0.11z"/>
   <path class="fil0" d="M64.59 2.15c0.02,-0.17 0.06,-0.13 -0.11,-0.11 -0.02,0.17 -0.06,0.13 0.11,0.11z"/>
   <path class="fil0" d="M63.8 1.47c0.02,-0.17 0.06,-0.13 -0.11,-0.11 -0.02,0.17 -0.06,0.13 0.11,0.11z"/>
   <path class="fil0" d="M63.02 0.8c0.02,-0.17 0.06,-0.12 -0.11,-0.11 -0.02,0.17 -0.06,0.13 0.11,0.11z"/>
   <path class="fil0" d="M23.31 1.14c-0.17,-0.02 -0.14,-0.06 -0.11,0.11 0.17,0.02 0.13,0.06 0.11,-0.11z"/>
   <path class="fil0" d="M64.48 2.04c0.02,-0.17 0.05,-0.13 -0.12,-0.11 -0.02,0.17 -0.06,0.13 0.12,0.11z"/>
   <path class="fil0" d="M91.24 24.98c0.02,-0.17 0.06,-0.13 -0.11,-0.11 -0.02,0.17 -0.06,0.13 0.11,0.11z"/>
   <path class="fil0" d="M71.68 8.22c0.02,-0.17 0.05,-0.13 -0.11,-0.11 -0.02,0.17 -0.06,0.13 0.11,0.11z"/>
   <path class="fil0" d="M93.38 83.01c-0.17,-0.02 -0.14,-0.06 -0.12,0.11 0.17,0.02 0.13,0.06 0.12,-0.11z"/>
   <path class="fil0" d="M17.91 88.3c0.02,-0.17 0.06,-0.14 -0.11,-0.12 -0.02,0.17 -0.06,0.13 0.11,0.12z"/>
   <path class="fil0" d="M6.78 98.98c0.02,-0.17 0.06,-0.13 -0.11,-0.11 -0.02,0.17 -0.06,0.13 0.11,0.11z"/>
   <path class="fil0" d="M18.14 88.52c0.02,-0.17 0.06,-0.13 -0.11,-0.11 -0.02,0.17 -0.06,0.13 0.11,0.11z"/>
   <path class="fil0" d="M73.92 10.13c0.02,-0.17 0.06,-0.13 -0.11,-0.11 -0.02,0.17 -0.06,0.12 0.11,0.11z"/>
   <path class="fil0" d="M74.71 10.81c0.02,-0.17 0.06,-0.13 -0.11,-0.11 -0.02,0.16 -0.06,0.12 0.11,0.11z"/>
   <path class="fil0" d="M65.38 2.82c0.02,-0.17 0.06,-0.13 -0.12,-0.11 -0.02,0.17 -0.05,0.13 0.12,0.11z"/>
   <path class="fil0" d="M92.03 25.65c0.02,-0.17 0.06,-0.13 -0.11,-0.11 -0.02,0.17 -0.06,0.13 0.11,0.11z"/>
   <path class="fil0" d="M63.8 27c0.02,-0.17 0.06,-0.13 -0.11,-0.11 -0.02,0.17 -0.06,0.13 0.11,0.11z"/>
   <path class="fil0" d="M88.09 22.28c0.02,-0.17 0.06,-0.13 -0.11,-0.11 -0.02,0.17 -0.05,0.13 0.11,0.11z"/>
   <path class="fil0" d="M81.01 16.21c0.02,-0.17 0.06,-0.13 -0.11,-0.11 -0.02,0.17 -0.06,0.12 0.11,0.11z"/>
   <path class="fil0" d="M63.57 26.78c0.02,-0.17 0.06,-0.13 -0.11,-0.11 -0.02,0.17 -0.06,0.13 0.11,0.11z"/>
   <path class="fil0" d="M62.9 0.69c0.02,-0.17 0.06,-0.13 -0.11,-0.11 -0.02,0.17 -0.06,0.13 0.11,0.11z"/>
   <path class="fil0" d="M73.13 9.46c0.02,-0.17 0.06,-0.13 -0.11,-0.11 -0.02,0.17 -0.06,0.12 0.11,0.11z"/>
   <path class="fil0" d="M66.05 3.39c0.02,-0.17 0.06,-0.13 -0.11,-0.11 -0.02,0.17 -0.06,0.13 0.11,0.11z"/>
   <path class="fil0" d="M83.37 18.23c0.02,-0.17 0.05,-0.13 -0.12,-0.11 -0.02,0.17 -0.05,0.13 0.12,0.11z"/>
   <path class="fil0" d="M82.58 17.56c0.02,-0.17 0.05,-0.13 -0.12,-0.11 -0.02,0.17 -0.05,0.13 0.12,0.11z"/>
   <path class="fil0" d="M76.95 98.64c-0.17,-0.02 -0.13,-0.06 -0.11,0.11 0.17,0.02 0.13,0.06 0.11,-0.11z"/>
   <path class="fil0" d="M72.46 8.89c0.02,-0.17 0.06,-0.13 -0.11,-0.11 -0.02,0.17 -0.06,0.13 0.11,0.11z"/>
   <path class="fil0" d="M66.17 3.5c0.02,-0.17 0.05,-0.12 -0.12,-0.11 -0.02,0.17 -0.05,0.13 0.12,0.11z"/>
   <path class="fil0" d="M81.8 16.88c0.02,-0.17 0.05,-0.13 -0.12,-0.11 -0.02,0.17 -0.06,0.12 0.12,0.11z"/>
   <path class="fil0" d="M66.84 4.06c0.02,-0.17 0.05,-0.12 -0.12,-0.11 -0.02,0.16 -0.06,0.12 0.12,0.11z"/>
   <path class="fil0" d="M63.46 26.67c0.02,-0.17 0.06,-0.13 -0.11,-0.11 -0.02,0.17 -0.06,0.13 0.11,0.11z"/>
   <path class="fil0" d="M90.46 24.3c0.02,-0.17 0.05,-0.12 -0.12,-0.11 -0.02,0.16 -0.06,0.12 0.12,0.11z"/>
   <path class="fil0" d="M77.07 98.52c-0.17,-0.02 -0.13,-0.05 -0.11,0.11 0.17,0.02 0.13,0.06 0.11,-0.11z"/>
   <path class="fil0" d="M72.35 8.78c0.02,-0.17 0.06,-0.13 -0.11,-0.11 -0.02,0.17 -0.06,0.13 0.11,0.11z"/>
   <path class="fil0" d="M69.98 6.76c0.02,-0.17 0.06,-0.12 -0.11,-0.11 -0.02,0.17 -0.05,0.13 0.11,0.11z"/>
   <path class="fil0" d="M93.83 82.56c-0.17,-0.02 -0.13,-0.06 -0.11,0.11 0.17,0.02 0.13,0.06 0.11,-0.11z"/>
   <path class="fil0" d="M18.36 88.75c0.02,-0.17 0.06,-0.13 -0.11,-0.11 -0.02,0.17 -0.06,0.13 0.11,0.11z"/>
   <path class="fil0" d="M80.22 15.53c0.02,-0.17 0.06,-0.12 -0.11,-0.11 -0.02,0.17 -0.06,0.13 0.11,0.11z"/>
   <path class="fil0" d="M65.26 2.71c0.02,-0.17 0.06,-0.13 -0.11,-0.11 -0.02,0.17 -0.05,0.12 0.11,0.11z"/>
   <path class="fil0" d="M88.88 22.96c0.02,-0.17 0.06,-0.13 -0.11,-0.11 -0.02,0.17 -0.06,0.13 0.11,0.11z"/>
   <path class="fil0" d="M69.2 6.09c0.02,-0.17 0.06,-0.13 -0.11,-0.11 -0.02,0.16 -0.05,0.12 0.11,0.11z"/>
   <path class="fil0" d="M18.02 88.41c0.02,-0.17 0.06,-0.13 -0.11,-0.11 -0.02,0.17 -0.06,0.13 0.11,0.11z"/>
   <path class="fil0" d="M67.62 4.74c0.02,-0.17 0.06,-0.12 -0.11,-0.11 -0.02,0.17 -0.06,0.13 0.11,0.11z"/>
   <path class="fil0" d="M66.95 4.17c0.02,-0.16 0.05,-0.12 -0.11,-0.11 -0.02,0.17 -0.06,0.13 0.11,0.11z"/>
   <path class="fil0" d="M84.16 18.91c0.02,-0.17 0.06,-0.12 -0.11,-0.11 -0.02,0.17 -0.06,0.13 0.11,0.11z"/>
   <path class="fil0" d="M77.86 13.51c0.02,-0.17 0.06,-0.12 -0.11,-0.11 -0.02,0.17 -0.05,0.12 0.11,0.11z"/>
   <path class="fil0" d="M68.41 5.41c0.02,-0.16 0.06,-0.12 -0.11,-0.11 -0.02,0.17 -0.05,0.13 0.11,0.11z"/>
   <path class="fil0" d="M84.94 19.58c0.02,-0.17 0.06,-0.12 -0.11,-0.11 -0.02,0.17 -0.06,0.13 0.11,0.11z"/>
   <path class="fil0" d="M76.28 12.16c0.02,-0.17 0.06,-0.12 -0.11,-0.11 -0.02,0.17 -0.06,0.13 0.11,0.11z"/>
   <path class="fil0" d="M91.12 84.12l-0.37 0.13c0.33,-0.02 0.18,0.07 0.37,-0.13z"/>
   <path class="fil0" d="M77.07 12.83c0.02,-0.17 0.06,-0.13 -0.11,-0.11 -0.02,0.17 -0.05,0.13 0.11,0.11z"/>
   <path class="fil0" d="M92.82 26.33c0.02,-0.17 0.05,-0.13 -0.11,-0.11 -0.02,0.17 -0.06,0.12 0.11,0.11z"/>
   <path class="fil0" d="M66.43 28.13l-0.4 -0.12c0.21,0.17 0.06,0.11 0.4,0.12z"/>
   <path class="fil0" d="M78.18 96.55l-0.09 0.21c0.2,0 0.12,0.04 0.09,-0.21z"/>
   <path class="fil0" d="M17.14 87.09l-0.11 -0.2c-0.02,0.24 -0.09,0.2 0.11,0.2z"/>
   <path class="fil0" d="M62.39 31.05c0,-0.19 0.04,-0.12 -0.22,-0.1l0.22 0.1z"/>
   <path class="fil0" d="M62.56 25.26c0.02,-0.24 0.09,-0.2 -0.11,-0.2l0.11 0.2z"/>
   <path class="fil0" d="M22.09 81.58l-0.11 -0.19c-0.02,0.23 -0.09,0.19 0.11,0.19z"/>
   <path class="fil0" d="M5.44 97.21l-0.11 -0.19c-0.02,0.23 -0.09,0.19 0.11,0.19z"/>
   <path class="fil0" d="M8.19 99.76l-0.2 -0.11c0,0.19 -0.04,0.12 0.2,0.11z"/>
   <polygon class="fil0" points="91.43,84.13 91.43,84 91.24,84.15 "/>
   <polygon class="fil0" points="20.3,89.77 20.04,89.63 "/>
   <polygon class="fil0" points="62.35,24.64 62.22,24.38 "/>
   <polygon class="fil0" points="25.36,0.12 25.1,0.25 "/>
   <polygon class="fil0" points="5.24,96.49 5.07,96.18 "/>
   <polygon class="fil0" points="5.33,96.85 5.19,96.63 "/>
   <polygon class="fil0" points="77.94,97.05 78.11,96.86 "/>
   <polygon class="fil0" points="21.86,80.89 21.72,80.65 "/>
   <polygon class="fil0" points="94.72,80.78 94.85,80.51 "/>
   <polygon class="fil0" points="62.78,31.19 62.48,31.02 "/>
   <polygon class="fil0" points="25.85,84.24 25.51,84.14 "/>
   <polygon class="fil0" points="25.24,84.14 24.98,84.01 "/>
   <polygon class="fil0" points="91.91,83.88 91.7,84.04 "/>
   <polygon class="fil0" points="62.47,24.98 62.32,24.77 "/>
   <polygon class="fil0" points="5.07,19.67 5.23,19.35 "/>
   <polygon class="fil0" points="59.19,27.51 59.07,27.2 "/>
   <polygon class="fil0" points="16.93,86.37 16.77,86.06 "/>
   <polygon class="fil0" points="17.03,86.73 16.88,86.51 "/>
   <polygon class="fil0" points="5.19,19.14 5.34,18.92 "/>
   <polygon class="fil0" points="8.93,15.86 8.65,15.98 "/>
   <polygon class="fil0" points="59.44,28.33 59.28,28.14 "/>
   <polygon class="fil0" points="65.37,27.92 65.17,27.76 "/>
   <polygon class="fil0" points="21.73,3.62 21.87,3.38 "/>
   <polygon class="fil0" points="59.32,28.02 59.17,27.78 "/>
   <polygon class="fil0" points="65.83,28.03 65.57,27.89 "/>
   <polygon class="fil0" points="19.93,89.67 19.72,89.51 "/>
   <polygon class="fil0" points="75.37,99.63 75.16,99.79 "/>
   <polygon class="fil0" points="8.59,99.89 8.35,99.75 "/>
   <polygon class="fil0" points="75.05,99.75 74.8,99.89 "/>
   <polygon class="fil0" points="9.19,99.99 8.86,99.89 "/>
   <polygon class="fil0" points="74.52,99.87 74.13,100 "/>
  </g>
 </g>
</svg>
